<svg width="333" height="314" viewBox="0 0 333 314" fill="none" xmlns="http://www.w3.org/2000/svg">
<g filter="url(#filter0_d)">
<rect x="11" y="10" width="309" height="285" rx="30" fill="white"/>
</g>
<path d="M165.5 42L260 98.2712L165.5 242L71 98.2712L165.5 42Z" fill="#3FBDAF"/>
<path d="M166 119V67" stroke="white" stroke-width="10"/>
<path d="M100 106L170 124" stroke="white" stroke-width="10"/>
<path d="M161 124L229 106" stroke="white" stroke-width="10"/>
<path d="M97.8664 105.567L165.5 62.9114L233.134 105.567L165.5 214.52L97.8664 105.567Z" stroke="white" stroke-width="10"/>
<path d="M145.946 262.183H143.31V249.386H145.946V262.183ZM147.296 257.357C147.296 255.875 147.627 254.694 148.289 253.815C148.957 252.937 149.868 252.497 151.023 252.497C151.948 252.497 152.713 252.843 153.316 253.534V248.683H155.865V262.183H153.571L153.448 261.172C152.815 261.963 152.001 262.358 151.005 262.358C149.886 262.358 148.986 261.919 148.307 261.04C147.633 260.155 147.296 258.928 147.296 257.357ZM149.836 257.542C149.836 258.433 149.991 259.115 150.302 259.59C150.612 260.064 151.064 260.302 151.655 260.302C152.44 260.302 152.994 259.971 153.316 259.309V255.556C153 254.894 152.452 254.562 151.673 254.562C150.448 254.562 149.836 255.556 149.836 257.542ZM161.671 262.358C160.276 262.358 159.14 261.931 158.261 261.075C157.388 260.22 156.951 259.08 156.951 257.656V257.41C156.951 256.455 157.136 255.603 157.505 254.853C157.874 254.097 158.396 253.517 159.069 253.112C159.749 252.702 160.523 252.497 161.39 252.497C162.691 252.497 163.713 252.907 164.457 253.728C165.207 254.548 165.582 255.711 165.582 257.217V258.254H159.526C159.608 258.875 159.855 259.373 160.265 259.748C160.681 260.123 161.205 260.311 161.838 260.311C162.816 260.311 163.581 259.956 164.132 259.247L165.38 260.645C164.999 261.184 164.483 261.605 163.833 261.91C163.183 262.209 162.462 262.358 161.671 262.358ZM161.381 254.554C160.877 254.554 160.467 254.724 160.15 255.063C159.84 255.403 159.641 255.89 159.553 256.522H163.086V256.32C163.074 255.758 162.922 255.324 162.629 255.02C162.336 254.709 161.92 254.554 161.381 254.554ZM172.003 262.183C171.886 261.954 171.801 261.67 171.748 261.33C171.133 262.016 170.333 262.358 169.349 262.358C168.417 262.358 167.644 262.089 167.028 261.55C166.419 261.011 166.114 260.331 166.114 259.511C166.114 258.503 166.486 257.729 167.231 257.19C167.981 256.651 169.062 256.379 170.474 256.373H171.643V255.828C171.643 255.389 171.528 255.037 171.3 254.773C171.077 254.51 170.723 254.378 170.236 254.378C169.809 254.378 169.472 254.48 169.226 254.686C168.985 254.891 168.865 255.172 168.865 255.529H166.325C166.325 254.979 166.495 254.469 166.835 254C167.175 253.531 167.655 253.165 168.276 252.901C168.898 252.632 169.595 252.497 170.368 252.497C171.54 252.497 172.469 252.793 173.154 253.385C173.846 253.971 174.192 254.797 174.192 255.863V259.985C174.197 260.888 174.323 261.57 174.569 262.033V262.183H172.003ZM169.902 260.416C170.277 260.416 170.623 260.334 170.94 260.17C171.256 260 171.49 259.774 171.643 259.493V257.858H170.693C169.422 257.858 168.745 258.298 168.663 259.177L168.654 259.326C168.654 259.643 168.766 259.903 168.988 260.108C169.211 260.313 169.516 260.416 169.902 260.416ZM180.753 259.555C180.753 259.244 180.598 259.001 180.287 258.825C179.983 258.644 179.49 258.482 178.811 258.342C176.549 257.867 175.418 256.906 175.418 255.459C175.418 254.615 175.767 253.912 176.464 253.35C177.167 252.781 178.084 252.497 179.215 252.497C180.422 252.497 181.386 252.781 182.107 253.35C182.833 253.918 183.196 254.656 183.196 255.564H180.656C180.656 255.201 180.539 254.902 180.305 254.668C180.07 254.428 179.704 254.308 179.206 254.308C178.778 254.308 178.447 254.404 178.213 254.598C177.979 254.791 177.861 255.037 177.861 255.336C177.861 255.617 177.993 255.846 178.257 256.021C178.527 256.191 178.978 256.341 179.611 256.47C180.243 256.593 180.777 256.733 181.21 256.892C182.552 257.384 183.223 258.236 183.223 259.449C183.223 260.316 182.851 261.02 182.107 261.559C181.362 262.092 180.402 262.358 179.224 262.358C178.427 262.358 177.718 262.218 177.097 261.937C176.482 261.649 175.998 261.26 175.647 260.768C175.295 260.27 175.119 259.733 175.119 259.159H177.528C177.551 259.61 177.718 259.956 178.028 260.196C178.339 260.437 178.755 260.557 179.277 260.557C179.763 260.557 180.129 260.466 180.375 260.284C180.627 260.097 180.753 259.854 180.753 259.555ZM186.805 253.71C187.479 252.901 188.325 252.497 189.345 252.497C191.407 252.497 192.453 253.695 192.483 256.092V262.183H189.943V256.162C189.943 255.617 189.825 255.216 189.591 254.958C189.357 254.694 188.967 254.562 188.422 254.562C187.678 254.562 187.139 254.85 186.805 255.424V262.183H184.265V248.683H186.805V253.71Z" fill="#3FBDAF"/>
<path d="M161.5 127L165.5 128L169.5 127L170.5 130H161L161.5 127Z" fill="#3FBDAF"/>
<defs>
<filter id="filter0_d" x="7" y="10" width="317" height="293" filterUnits="userSpaceOnUse" color-interpolation-filters="sRGB">
<feFlood flood-opacity="0" result="BackgroundImageFix"/>
<feColorMatrix in="SourceAlpha" type="matrix" values="0 0 0 0 0 0 0 0 0 0 0 0 0 0 0 0 0 0 127 0"/>
<feOffset dy="4"/>
<feGaussianBlur stdDeviation="2"/>
<feColorMatrix type="matrix" values="0 0 0 0 0 0 0 0 0 0 0 0 0 0 0 0 0 0 0.25 0"/>
<feBlend mode="normal" in2="BackgroundImageFix" result="effect1_dropShadow"/>
<feBlend mode="normal" in="SourceGraphic" in2="effect1_dropShadow" result="shape"/>
</filter>
</defs>
</svg>
